<?xml version="1.0" standalone="no"?>
<!DOCTYPE svg PUBLIC "-//W3C//DTD SVG 1.1//EN" "http://www.w3.org/Graphics/SVG/1.1/DTD/svg11.dtd" >
<svg xmlns="http://www.w3.org/2000/svg">
<metadata>
Created by FontForge 20120731 at Tue Jun  2 16:51:58 2015
 By Ads
</metadata>
<defs>
<font id="iconfont" horiz-adv-x="1024" >
  <font-face 
    font-family="iconfont"
    font-weight="500"
    font-stretch="normal"
    units-per-em="1024"
    panose-1="2 0 6 3 0 0 0 0 0 0"
    ascent="812"
    descent="-212"
    x-height="792"
    bbox="11 -212 1720 799"
    underline-thickness="50"
    underline-position="-100"
    unicode-range="U+0078-E629"
  />
<missing-glyph horiz-adv-x="374" 
d="M34 0v682h272v-682h-272zM68 34h204v614h-204v-614z" />
    <glyph glyph-name=".notdef" horiz-adv-x="374" 
d="M34 0v682h272v-682h-272zM68 34h204v614h-204v-614z" />
    <glyph glyph-name=".null" horiz-adv-x="0" 
 />
    <glyph glyph-name="nonmarkingreturn" horiz-adv-x="341" 
 />
    <glyph glyph-name="x" unicode="x" horiz-adv-x="1001" 
d="M281 543q-27 -1 -53 -1h-83q-18 0 -36.5 -6t-32.5 -18.5t-23 -32t-9 -45.5v-76h912v41q0 16 -0.5 30t-0.5 18q0 13 -5 29t-17 29.5t-31.5 22.5t-49.5 9h-133v-97h-438v97zM955 310v-52q0 -23 0.5 -52t0.5 -58t-10.5 -47.5t-26 -30t-33 -16t-31.5 -4.5q-14 -1 -29.5 -0.5
t-29.5 0.5h-32l-45 128h-439l-44 -128h-29h-34q-20 0 -45 1q-25 0 -41 9.5t-25.5 23t-13.5 29.5t-4 30v167h911zM163 247q-12 0 -21 -8.5t-9 -21.5t9 -21.5t21 -8.5q13 0 22 8.5t9 21.5t-9 21.5t-22 8.5zM316 123q-8 -26 -14 -48q-5 -19 -10.5 -37t-7.5 -25t-3 -15t1 -14.5
t9.5 -10.5t21.5 -4h37h67h81h80h64h36q23 0 34 12t2 38q-5 13 -9.5 30.5t-9.5 34.5q-5 19 -11 39h-368zM336 498v228q0 11 2.5 23t10 21.5t20.5 15.5t34 6h188q31 0 51.5 -14.5t20.5 -52.5v-227h-327z" />
    <glyph glyph-name="uniE600" unicode="&#xe600;" 
d="M880 418h-2h-2q-30 103 -110 173q-76 67 -173.5 86.5t-192 -11.5t-161.5 -107q-54 -61 -78 -141h-1h-3q-15 0 -29 -4.5t-25.5 -13t-20.5 -20t-13.5 -26t-4.5 -29.5q0 -39 27 -66q26 -26 64 -27q26 -120 117 -200q76 -67 173.5 -86.5t191.5 12t161 107.5q65 72 85 167
q37 1 63 27q27 27 27 66t-27 66t-66 27zM149 264q-7 1 -13 3.5t-11.5 6t-10.5 7.5q-18 19 -18 44q0 24 16.5 42t40.5 19q-12 -60 -4 -122zM857 268q0 -3 -0.5 -5.5t-1 -5.5t-0.5 -5q-1 -1 -1 -4q-1 -8 -2 -12q-19 -85 -77 -150q-62 -70 -148 -98.5t-175.5 -11t-158.5 79.5
q-83 72 -107 181q-1 3 -1.5 5t-1 5t-0.5 5q-1 6 -3 16q-3 28 -2 56t7 56q0 4 1 8l2 8q2 7 4 16q22 71 71 126q61 69 147.5 98t175.5 11t159 -79q72 -64 100 -156q4 -13 4 -16q1 -1 1.5 -2.5t0.5 -3.5t0.5 -3.5t1 -3.5t0.5 -3q5 -26 6 -47q1 -11 1 -22t-0.5 -21.5t-2.5 -21.5
zM924 281q-15 -14 -35 -17q4 36 2 71q-1 23 -7 51q24 -1 41 -19t17 -42q0 -25 -18 -44zM394 378q13 -2 25 3t20 15t10 23q3 20 -9.5 36t-32.5 19t-36 -9t-19 -32q-1 -13 3.5 -25t15 -20t23.5 -10zM602 378q20 -3 36 9.5t19 32t-9 36t-32 19t-36 -9.5t-19 -32t9 -36t32 -19z
M715 304q-5 1 -9 0t-7 -4t-4 -7q-20 -66 -67.5 -105.5t-108.5 -40.5h-1q-62 -1 -112.5 38t-72.5 105q-2 4 -5 7t-7 3.5t-8 -0.5q-4 -2 -7 -5t-4 -7t1 -8q26 -76 84.5 -120.5t130.5 -44.5h2q72 2 127 47t78 122q1 3 0.5 6t-2 6t-3.5 5t-5 3z" />
    <glyph glyph-name="uniE601" unicode="&#xe601;" 
d="M880 418h-2h-2q-30 103 -110 173q-116 103 -270.5 93t-256.5 -125q-54 -61 -78 -141h-1h-3q-38 0 -65.5 -27t-27.5 -66t27 -66q26 -26 64 -27q26 -120 117 -200q57 -50 128 -73.5t141.5 -19.5t138.5 36.5t118 89.5q65 72 85 167q37 1 63 27q27 27 27 66t-27 66t-66 27z
M889 264q4 36 2 71q0 6 -1 13l-2 12l-2 14l-2 12q24 -1 41 -19t17 -42q0 -6 -1.5 -12t-3.5 -11.5t-5.5 -10.5t-7.5 -10q-15 -14 -35 -17zM852 236q-19 -85 -77 -150q-62 -70 -148 -98.5t-175.5 -11t-158.5 79.5q-41 36 -68 82.5t-39 98.5q-1 3 -1.5 5t-1 5t-0.5 5
q-1 6 -3 16q-7 57 5 112q0 4 1 8l2 8q2 7 4 16q22 71 71 126q61 69 147.5 98t175.5 11t159 -79q72 -64 100 -156q4 -13 4 -16q1 -2 1.5 -4.5t1.5 -6.5t1 -5q5 -26 6 -47q3 -32 -2 -65q0 -3 -0.5 -5.5t-1 -5.5t-0.5 -5q-3 -13 -3 -16zM114 281q-6 6 -10 13t-6 15t-2 16
q0 16 7.5 30t21 22t28.5 9q-12 -60 -4 -122q-10 2 -19 6t-16 11zM410 371q13 -2 24.5 2.5t19.5 14.5t10 22q3 20 -8.5 36t-31 19t-35.5 -8.5t-19 -31.5q-2 -13 2.5 -24.5t14.5 -19.5t23 -10zM613.5 368q12.5 -2 24.5 2.5t20 14.5t10 23q3 19 -8.5 35t-31.5 19
q-13 2 -24.5 -2.5t-19.5 -14.5t-10 -22.5t2.5 -24.5t14.5 -20t22.5 -10zM319 198q-5 -5 -5 -11.5t4.5 -11t11 -5t11.5 4.5q4 4 12 10.5t29.5 20t45 23t57 15t67 2.5t75 -21t80.5 -51q12 -10 22 2q3 3 3.5 7.5t-1 8.5t-4.5 7q-152 127 -322 53q-54 -24 -86 -54z" />
    <glyph glyph-name="uniE602" unicode="&#xe602;" 
d="M880 418h-2h-2q-30 103 -110 173q-23 21 -49 37t-52.5 27.5t-55 18.5t-57 9.5t-57 0.5t-56.5 -8t-55.5 -16.5t-52.5 -25t-48.5 -33.5t-43.5 -42q-54 -61 -78 -141h-1h-3q-38 0 -65.5 -27t-27.5 -66t27 -66q26 -26 64 -27q26 -120 117 -200q76 -67 173.5 -86.5t191.5 12
t161 107.5q65 72 85 167q37 1 63 27q27 27 27 66t-27 66t-66 27zM149 264q-7 1 -13 3.5t-11.5 6t-10.5 7.5q-9 9 -13.5 20.5t-4.5 23.5q0 24 16.5 42t40.5 19q-12 -60 -4 -122zM857 268q0 -2 -2 -16q-1 -1 -1 -3.5t-0.5 -4t-1 -4t-0.5 -4.5q-19 -85 -77 -150
q-62 -70 -148 -98.5t-175.5 -11t-158.5 79.5q-41 36 -68 82.5t-39 98.5q-1 3 -1.5 5t-1 5t-0.5 5q-1 4 -1.5 7.5t-1.5 8.5q-7 57 5 112l3 16q2 7 4 16q22 71 71 126q61 69 147.5 98t175.5 11t159 -79q72 -64 100 -156q4 -13 4 -16q1 -2 1.5 -4.5t1.5 -6.5t1 -5q5 -26 6 -47
q1 -17 0.5 -33t-2.5 -32zM924 281q-5 -4 -10.5 -7.5t-12 -6t-12.5 -3.5q4 36 2 71q-1 12 -2.5 25t-4.5 26q24 -1 41 -19t17 -42q0 -25 -18 -44zM370 400q-2 -13 2.5 -25t14.5 -20t22.5 -10t24.5 2.5t20 14.5t10 23q3 19 -8.5 35t-31 19t-35.5 -8.5t-19 -30.5zM613 343
q10 -2 19 0.5t16.5 7.5t12.5 13.5t6 17.5q3 20 -8.5 35.5t-30.5 18.5q-13 3 -25 -2t-20 -14.5t-10 -22.5q-3 -19 9 -35t31 -19zM319 172q-12 -11 -1 -22q4 -5 11 -5t11 4q47 44 118 63q131 35 248 -63q6 -5 12.5 -4t10.5 6t3.5 11.5t-5.5 10.5q-34 29 -70 47t-67.5 25t-63 7
t-57 -5t-50 -15t-41.5 -19t-32 -19.5t-20 -15t-7 -6.5zM614 502l73 -37q6 -3 12 -1t9 8t1 12.5t-8 9.5l-73 36q-3 1 -6 1.5t-6 -0.5t-5.5 -3t-3.5 -5q-2 -4 -2 -8t2.5 -7.5t6.5 -5.5zM353 465l73 37q6 3 8 9t-1 12q-2 4 -5.5 6t-7.5 2.5t-8 -1.5l-73 -36q-4 -2 -6.5 -6
t-2.5 -8t2 -8q3 -6 9 -8t12 1zM659 241q11 -8 28 -5q4 1 7 2t8.5 4t9.5 8q8 10 6.5 22t-6.5 21.5t-13 18.5q-5 5 -12.5 15t-11.5 15.5t-8 9.5v1v-1v1v-1q-10 -34 -17 -48q-19 -43 9 -63z" />
    <glyph glyph-name="uniE603" unicode="&#xe603;" 
d="M910 588l-397 149l-399 -149l-14 -5v-574l397 -147l16 -5l15 5l397 147v574zM497 -105l-367 136v518l262 -96l105 -39v-519zM513 441l-189 70l-165 61l354 132l353 -132zM895 31l-367 -136v519l367 135v-518z" />
    <glyph glyph-name="uniE604" unicode="&#xe604;" 
d="M100 561v-545l397 -145v545l-105 39zM513 736l-399 -147h-1l212 -77l188 -68l395 146zM528 416v-545l398 145v547z" />
    <glyph glyph-name="uniE605" unicode="&#xe605;" 
d="M901 740h-772q-32 0 -54.5 -22.5t-22.5 -54.5v-498q0 -32 22.5 -54.5t54.5 -22.5h542l153 -152v152h77q32 0 55 22.5t23 54.5v498q0 32 -23 54.5t-55 22.5zM940 165q0 -11 -5 -19.5t-14 -14t-20 -5.5h-116v-97l-87 86l-11 11h-558q-11 0 -19.5 5.5t-14 14t-5.5 19.5v498
q0 16 11.5 27t27.5 11h772q11 0 20 -5t14 -14t5 -19v-498zM515 452q-16 0 -27.5 -11t-11.5 -27q0 -8 3.5 -15t8.5 -12.5t12 -8.5t15 -3q11 0 19.5 5.5t14 14t5.5 19.5q0 16 -11.5 27t-27.5 11zM670 452q-8 0 -15.5 -3t-12.5 -8t-8 -12t-3 -15t3 -15t8 -12.5t12.5 -8.5
t15.5 -3q16 0 27 11.5t11 27.5t-11 27t-27 11zM364 452q-16 0 -27 -11t-11 -27q0 -11 5 -19.5t14 -14t19 -5.5q16 0 27.5 11.5t11.5 27.5q0 8 -3 15t-8.5 12t-12.5 8t-15 3z" />
    <glyph glyph-name="uniE606" unicode="&#xe606;" 
d="M901 740h-772q-32 0 -54.5 -22.5t-22.5 -54.5v-498q0 -16 6 -30t16 -24.5t24.5 -16.5t30.5 -6h542l153 -152v152h77q32 0 55 22.5t23 54.5v498q0 32 -23 54.5t-55 22.5zM364.5 375q-10.5 0 -19.5 5.5t-14 14t-5 19.5q0 16 11 27t27 11t27.5 -11t11.5 -27
q0 -11 -5.5 -19.5t-14 -14t-19 -5.5zM515 375q-10 0 -19 5.5t-14.5 14t-5.5 19.5q0 16 11.5 27t27.5 11t27.5 -11t11.5 -27t-11.5 -27.5t-27.5 -11.5zM669.5 375q-10.5 0 -19.5 5.5t-14 14t-5 19.5q0 16 11.5 27t27.5 11t27 -11t11 -27q0 -11 -5 -19.5t-14 -14t-19.5 -5.5z
" />
    <glyph glyph-name="uniE607" unicode="&#xe607;" 
d="M510 754q-91 0 -174 -35.5t-143 -95.5t-95.5 -143t-35.5 -174.5t35.5 -174.5t95.5 -143t143 -95.5t174 -35.5t174 35.5t143.5 95.5t96 143t35.5 175q0 52 -12 102.5t-34 94.5t-52.5 83t-69.5 69.5t-83.5 53t-95 34t-102.5 11.5zM510.5 -106q-111.5 0 -206.5 55.5
t-150 150t-55 206t55 206.5t150 150t206.5 55t206 -55t149.5 -150t55 -206.5t-55 -206t-149.5 -150t-206 -55.5zM510 268h-224v-37h261v372h-37v-335z" />
    <glyph glyph-name="uniE608" unicode="&#xe608;" 
d="M510 754q-91 0 -174 -35.5t-143 -95.5t-95.5 -143t-35.5 -174.5t35.5 -174.5t95.5 -143t143 -95.5t174 -35.5t174 35.5t143.5 95.5t96 143t35.5 175q0 73 -23 141.5t-64.5 123.5t-96.5 96.5t-123.5 64t-141.5 22.5zM547 231h-261v37h224v335h37v-372z" />
    <glyph glyph-name="uniE609" unicode="&#xe609;" 
d="M117 408q-44 0 -75 -31t-31 -75t31 -75.5t75 -31.5q29 0 53.5 14.5t39 39t14.5 53.5t-14.5 53.5t-39 38.5t-53.5 14zM117 231q-29 0 -49.5 20.5t-20.5 50t20.5 50.5t49.5 21q20 0 36 -9.5t25.5 -26t9.5 -36t-9.5 -35.5t-25.5 -25.5t-36 -9.5zM905 408q-44 0 -75 -31
t-31 -75t31 -75.5t75 -31.5t75.5 31.5t31.5 75.5t-31.5 75t-75.5 31zM905 231q-19 0 -35 9.5t-25.5 25.5t-9.5 36q0 14 5.5 27t15 22.5t22.5 15.5t27 6q30 0 50.5 -21t20.5 -50.5t-20.5 -50t-50.5 -20.5zM511 408q-44 0 -75 -31t-31 -75q0 -29 14.5 -53.5t39 -39t52.5 -14.5
q44 0 75.5 31.5t31.5 75.5t-31.5 75t-75.5 31zM511.5 231q-29.5 0 -50 20.5t-20.5 50t20.5 50.5t50 21t50 -21t20.5 -50.5t-20.5 -50t-50 -20.5z" />
    <glyph glyph-name="uniE60A" unicode="&#xe60a;" 
d="M511 745q-90 0 -172.5 -35.5t-142 -95t-94.5 -142t-35 -173t35 -173t94.5 -142t142 -94.5t172.5 -35q73 0 140.5 22.5t122.5 63.5t96 95.5t63.5 122.5t22.5 141q0 60 -16 118t-45 106.5t-70 90t-89.5 70t-106 44.5t-118.5 16zM511 -108q-81 0 -154.5 30.5t-129.5 85.5
q87 36 179 63q11 3 18 9.5t10 16t3.5 15.5t0.5 17q0 42 -12 67q-14 30 -17 61q0 8 -6 13q-14 12 -23 55q-5 27 -1 39q2 4 3 7q1 6 1.5 18.5t-1 26.5t-3 28.5t-3.5 26.5q-2 13 3.5 36.5t21.5 43.5q32 42 96 46h35q64 -4 97 -46q8 -11 14 -24t8 -23t3 -19.5t0 -13.5
q-5 -25 -7 -55t1 -45q1 -3 2 -7q3 -6 3 -11.5t-4 -27.5q-8 -43 -22 -55q-2 -1 -3 -2.5t-1.5 -3t-1 -3.5t-1.5 -4q-1 -14 -6 -31.5t-11 -29.5q-17 -38 -17 -66q0 -11 0.5 -17.5t3 -15.5t9.5 -15.5t19 -9.5q95 -28 180 -62q-57 -56 -131 -87t-156 -31zM824 39q-81 34 -195 68
q-4 1 -5 4.5t-1 18.5q0 20 14 50q6 13 11.5 31.5t8.5 35.5q8 10 15.5 27t13.5 44q7 37 -1 59q-1 3 -1 4q-2 6 0 33t6 50q1 13 0.5 29.5t-9 39t-23.5 41.5q-43 55 -125 60h-38q-81 -5 -124 -60q-21 -27 -28 -58t-4 -52q5 -23 6.5 -49.5t0.5 -33.5q0 -1 -1 -4q-9 -22 -1 -59
q9 -48 29 -71q5 -35 20 -67q8 -18 8 -51q0 -11 -0.5 -15t-1.5 -5.5t-4 -2.5q-113 -33 -195 -69q-96 114 -96 263q0 110 54.5 204t148.5 149t204.5 55t204 -55t148.5 -149t55 -204q0 -147 -95 -261z" />
    <glyph glyph-name="uniE60B" unicode="&#xe60b;" 
d="M182 716v-835l330 243l330 -243v835h-660zM807 -50l-275 202l-20 16l-21 -16l-274 -202v732h590v-732zM685 508h-347v-35h347v35zM685 368h-347v-35h347v35z" />
    <glyph glyph-name="uniE60C" unicode="&#xe60c;" 
d="M1017 411h-383l-118 362l-117 -362h-383l310 -223l-119 -361l309 224l309 -224l-119 361zM754 -76l-216 157l-22 16l-21 -16l-217 -157l84 253l8 26l-22 16l-216 155h294l8 26l82 253l83 -253l8 -26h294l-216 -155l-22 -16l8 -26z" />
    <glyph glyph-name="uniE60D" unicode="&#xe60d;" 
d="M961 499h-698l-57 232h-156v-33h130l162 -667q-26 -8 -43 -30t-17 -50q0 -34 24.5 -58.5t58.5 -24.5q12 0 22.5 3t19.5 8.5t17 13t13 17t8 20t3 21.5q0 28 -17 50h234q-8 -11 -12.5 -23.5t-4.5 -26.5q0 -34 24 -58.5t59 -24.5q22 0 41.5 11.5t30.5 30.5t11 41.5t-11 41.5
t-30.5 30t-41.5 11h-355l-17 67h467zM731 1q13 0 24.5 -6.5t18.5 -18t7 -25.5q0 -10 -4 -19t-11 -16t-16 -10.5t-19 -3.5t-19.5 3.5t-16 10.5t-10.5 16t-4 19q0 21 14.5 35.5t35.5 14.5zM365.5 1q20.5 0 35 -14.5t14.5 -35.5q0 -10 -4 -19t-10.5 -16t-15.5 -10.5t-20 -3.5
q-8 0 -15.5 2.5t-13.5 7t-10.5 10.5t-7 13.5t-2.5 15.5q0 21 14.5 35.5t35 14.5zM351 134l-80 332h644l-113 -332h-451z" />
    <glyph glyph-name="uniE60E" unicode="&#xe60e;" 
d="M879 569l-367 138l-368 -137l-14 -6v-531l368 -136l14 -5l14 5l367 136v531zM498 -72l-339 126v479l241 -89l98 -36v-480zM512 433l-174 65l-153 56l327 123l326 -123zM865 54l-339 -126v480l339 125v-479z" />
    <glyph glyph-name="uniE60F" unicode="&#xe60f;" 
d="M945 213v173h-96q-12 49 -36 92l67 67l-123 123l-65 -66q-44 26 -93 39v92h-173v-92q-25 -6 -48 -16t-45 -23l-65 66l-123 -123l67 -67q-24 -43 -36 -92h-96v-173h99q7 -23 16 -45t22 -42l-72 -71l123 -123l73 73q39 -23 85 -35v-104h173v104q46 12 86 35l72 -73l123 123
l-72 71q25 41 38 87h99zM813 222q-6 -20 -14.5 -40t-19.5 -38l-14 -23l19 -19l47 -47l-74 -74l-48 48l-19 19l-23 -13q-17 -10 -36.5 -18t-40.5 -13l-26 -7v-96h-103v96l-26 7q-41 10 -77 31l-23 13l-19 -19l-48 -48l-74 74l47 47l19 19l-14 23q-11 18 -19.5 38t-13.5 40
l-7 26h-92v104h90l6 26q5 22 13 42.5t19 40.5l14 23l-19 18l-43 43l74 74l41 -42l19 -19l23 14q39 24 84 35l26 7v85h103v-85l26 -7q11 -3 22 -6.5t21.5 -8t20.5 -9.5t20 -11l23 -14l19 19l41 42l74 -74l-43 -43l-19 -18l14 -23q22 -39 32 -83l7 -26h89v-104h-91zM513 456
q-43 0 -78.5 -21t-56.5 -57t-21 -78q0 -65 45.5 -110.5t110.5 -45.5q31 0 60 12t50 33t33 50t12 61q0 64 -45.5 110t-109.5 46zM513 178q-51 0 -86.5 35.5t-35.5 86t35.5 86t86 35.5t86 -35.5t35.5 -85.5q0 -33 -16.5 -61t-44.5 -44.5t-60 -16.5z" />
    <glyph glyph-name="uniE610" unicode="&#xe610;" 
d="M931 712q-8 8 -18.5 12t-21.5 4q-23 0 -39 -16l-164 -164v31h-596v-708h707v596h-34l166 166q8 8 12 18.5t4 21t-4 21t-12 18.5zM762 -91h-633v632h552l-291 -291v-81h77l295 295v-555zM905 659l-453 -453h-25v28l451 451q6 6 13.5 6t13 -5.5t5.5 -13t-5 -13.5z" />
    <glyph glyph-name="uniE611" unicode="&#xe611;" 
d="M512 113q71 0 121 50t50 122v312q0 71 -50 121.5t-121 50.5t-121 -50.5t-50 -121.5v-312q0 -18 3.5 -35t10 -32.5t15.5 -29t21 -25.5t25.5 -21t29 -15.5t32.5 -10t34 -3.5zM372 597q0 38 19 70.5t51 51.5t70 19q58 0 99 -41.5t41 -99.5v-312q0 -59 -41 -100t-99 -41
t-99 41t-41 100v312zM745 441v-156q0 -64 -31 -118t-85 -85.5t-117 -31.5q-97 0 -165 69t-68 166v156h-32v-156q0 -53 20 -100.5t53.5 -83t80 -57.5t98.5 -24h-2v-158h-141v-31h312v31h-140v158h-3q52 2 98.5 24t80 57.5t53.5 83t20 100.5v156h-32z" />
    <glyph glyph-name="uniE612" unicode="&#xe612;" 
d="M22 343h980v-82h-980v82z" />
    <glyph glyph-name="uniE613" unicode="&#xe613;" horiz-adv-x="1721" 
d="M12 578h220v221h40v-221h222v-39h-222v-217h-40v217h-220v39zM1198 -157l-25 -30l-284 251l281 255l28 -28l-253 -227zM1268 307v-519l452 259z" />
    <glyph glyph-name="uniE614" unicode="&#xe614;" 
d="M736 -111l-47 -57l-527 467l522 472l52 -51l-470 -421z" />
    <glyph glyph-name="uniE615" unicode="&#xe615;" 
d="M188 758v-911l794 456z" />
    <glyph glyph-name="uniE616" unicode="&#xe616;" 
d="M512 689q-53 0 -104 -14t-94.5 -39t-79.5 -61t-61.5 -78.5t-39.5 -93t-14 -103.5q0 -106 52.5 -195.5t143 -141.5t197.5 -52t197.5 52t143 141.5t52.5 195.5q0 79 -31 151t-83.5 124t-125.5 83t-153 31zM789 72q-72 30 -173 60q-4 1 -4.5 4t-0.5 16q0 10 3 20.5t9 22.5
q13 28 18 59q17 20 25 62q3 14 3.5 24.5t-0.5 15.5t-3 12q-1 2 -2 3v10q0 8 0.5 18t2 22t3.5 22q1 4 1 9v10q0 5 -1 11t-2.5 12.5t-4 13.5t-5.5 13.5t-7 13.5t-9 13q-3 4 -6 7l-8 8q-4 4 -9 7.5t-10.5 7.5t-12 7t-14 5.5t-15 4.5t-17 3.5t-19.5 2.5h-33q-72 -5 -109 -53
q-19 -23 -25.5 -50.5t-3.5 -45.5q10 -53 6 -72q0 -1 -1 -3q-4 -10 -4.5 -19t3.5 -33q2 -8 4 -15.5t4 -13.5t4.5 -11t5 -9t4.5 -7l4 -6q4 -31 17 -59q4 -7 6 -18t2 -26q0 -13 -1 -16t-4 -4q-101 -29 -173 -61q-85 100 -85 230q0 97 48 179t131 129.5t181 47.5q59 0 114 -18
t99 -51t77.5 -76.5t51.5 -98t18 -112.5q0 -129 -83 -228z" />
    <glyph glyph-name="uniE617" unicode="&#xe617;" 
d="M69 416v-384l290 -103v385l-77 27zM370 540l-291 -104l154 -54l137 -49l288 103zM381 -71l290 103v385l-290 -103v-385zM845 553v128h-44v-128h-128v-44h128v-128h44v128h128v44h-128z" />
    <glyph glyph-name="uniE618" unicode="&#xe618;" 
d="M199 689v-778l313 227l313 -227v778h-626zM677 332h-330v33h330v-33zM677 462h-330v32h330v-32z" />
    <glyph glyph-name="uniE619" unicode="&#xe619;" 
d="M591 493h-129q0 2 -0.5 5t-2 12.5t-4.5 19t-9.5 22.5t-15 24.5t-23 23t-32 20t-43 14.5t-54.5 7q-105 5 -137 -101q-8 -28 -9 -52q-1 -8 -0.5 -22t9 -44.5t26.5 -47.5q3 -10 6.5 -25.5t2.5 -47.5t-16 -43q-14 -10 0 -24q4 -1 11.5 -2t25 2.5t30 15t20 41t1.5 73.5
q0 2 0.5 5t2.5 11t6 14.5t12 13.5t19 9h303q2 1 5.5 4t9.5 11.5t7.5 17t-3.5 20.5t-19 23zM864 236q-2 4 -3.5 10t-4.5 23t-3 31.5t4 29.5t13 22q14 10 0 24q-4 1 -11.5 2t-25 -2.5t-30 -15t-20 -40.5t-1.5 -74v-1q0 -1 -0.5 -4t-1 -6.5t-2 -7.5t-3.5 -8t-5 -8t-7 -7.5
t-9 -6t-11 -4.5h-304q-2 -1 -5 -3.5t-9 -11t-8 -17t3 -21t19 -23.5h129q0 -3 0.5 -8t4 -19.5t10 -28t20 -30.5t32.5 -29.5t49.5 -21.5t68.5 -11q29 -1 52.5 7t38.5 20.5t26 30t16 33t8 31.5t3.5 22t0.5 9q1 9 0.5 22.5t-9 44.5t-25.5 47z" />
    <glyph glyph-name="uniE61A" unicode="&#xe61a;" 
d="M516 745q-52 0 -102 -11.5t-93.5 -33.5t-82.5 -52.5t-69 -69t-52 -82.5t-34 -94t-12 -102q0 -170 113 -296q110 -123 272 -145q30 -4 60 -4q91 0 173.5 35t142 95t95 142.5t35.5 173t-35.5 173t-95 142t-142 94.5t-173.5 35zM516 -34q-67 0 -129 26.5t-107 71.5
t-71 106.5t-26 129.5t26 130t71 106.5t107 71t129 26.5q55 0 106 -17t92 -48t72 -72t47.5 -92t16.5 -105q0 -136 -95 -234q-104 -96 -239 -100zM572 323v200q0 23 -16.5 39t-39.5 16t-39 -16t-16 -39v-223q0 -11 4 -21.5t12 -17.5l111 -112q6 -5 12.5 -8.5t13.5 -5.5t14 -2
q11 0 21 4t18 12q4 4 6.5 8t4.5 8.5t3.5 9t2 9.5t0 9.5t-2 9.5t-3.5 9t-4.5 8.5t-6.5 7.5z" />
    <glyph glyph-name="uniE61B" unicode="&#xe61b;" 
d="M513 746q-91 0 -174 -35.5t-142.5 -95t-95 -142.5t-35.5 -173.5t35.5 -173.5t95 -142.5t142.5 -95t174 -35.5t173.5 35.5t142.5 95t95 142.5t35 173.5t-35 173.5t-95 142.5t-142.5 95t-173.5 35.5zM464 539q0 20 14 34t34.5 14t35 -14t14.5 -34v-260q0 -21 -14.5 -35
t-34.5 -14q-8 0 -15.5 2.5t-13.5 7t-10.5 10.5t-7 13.5t-2.5 15.5v260zM512.5 48q-26.5 0 -45 18.5t-18.5 45t18.5 45t45.5 18.5q17 0 31.5 -8.5t23 -23t8.5 -31.5q0 -27 -18.5 -45.5t-45 -18.5z" />
    <glyph glyph-name="uniE61C" unicode="&#xe61c;" 
d="M513 746q-91 0 -174 -35.5t-142.5 -95t-95 -142.5t-35.5 -173.5t35.5 -173.5t95 -142.5t142.5 -95t174 -35.5q60 0 118 16t107 44.5t90.5 70t70 90.5t44.5 107t16 118q0 91 -35 174t-95 142.5t-142.5 95t-173.5 35.5zM574 143h-230v319h144v-87h86v-232zM503 390v72
l71 -72h-71zM661 201h-72v195l-80 81h-78v43h143v-87h87v-232zM589 448v72l72 -72h-72z" />
    <glyph glyph-name="uniE61D" unicode="&#xe61d;" 
d="M451 338zM434 338q0 7 5 12t12 5t12 -5t5 -12q0 -14 -14 -17h-3q-7 0 -12 5t-5 12zM518 338zM500 338q0 7 5 12t13 5q4 0 8 -2.5t6.5 -6.5t2.5 -8q0 -3 -1 -5.5t-2.5 -5t-3.5 -4t-5 -2t-5 -0.5q-4 0 -7 1t-5.5 3.5t-4 5.5t-1.5 7zM512 746q-91 0 -173.5 -35.5t-142.5 -95
t-95.5 -142.5t-35.5 -173.5t35.5 -173.5t95.5 -142.5t142.5 -95t173.5 -35.5t173.5 35.5t142.5 95t95.5 142.5t35.5 173.5t-35.5 173.5t-95.5 142.5t-142.5 95t-173.5 35.5zM721 208q0 -7 -3.5 -13t-9.5 -9.5t-13 -3.5h-40v-66l-66 66h-260q-7 0 -13 3.5t-9.5 9.5t-3.5 13
v249q0 10 7.5 18t18.5 8h366q11 0 18.5 -8t7.5 -18v-249zM584 338zM567 338q0 7 5 12t12 5t12 -5t5 -12t-5 -12t-12 -5t-12 5t-5 12z" />
    <glyph glyph-name="uniE61E" unicode="&#xe61e;" 
d="M117 408q-44 0 -75 -31t-31 -75t31 -75.5t75 -31.5t75.5 31.5t31.5 75.5t-31.5 75t-75.5 31zM905 408q-28 0 -52.5 -14t-39 -38.5t-14.5 -53.5t14.5 -53.5t39 -39t52.5 -14.5q44 0 75.5 31.5t31.5 75.5t-31.5 75t-75.5 31zM511 408q-28 0 -52.5 -14t-39 -38.5
t-14.5 -53.5q0 -44 31 -75.5t75 -31.5q18 0 34 5.5t29 15.5t23 23t15.5 29t5.5 34q0 44 -31.5 75t-75.5 31z" />
    <glyph glyph-name="uniE61F" unicode="&#xe61f;" 
d="M23 348h447v446h80v-446h451v-80h-451v-441h-80v441h-447v80z" />
    <glyph glyph-name="uniE620" unicode="&#xe620;" 
d="M729 297l-470 421l53 52l522 -473l-528 -467l-47 57z" />
    <glyph glyph-name="uniE621" unicode="&#xe621;" 
d="M918 630l-508 -503l-291 294l-71 -69l292 -295l69 -70l70 70l509 503z" />
    <glyph glyph-name="uniE622" unicode="&#xe622;" 
d="M685 738h93v-876h-93v876zM172 -45h606v-93h-606v93z" />
    <glyph glyph-name="uniE623" unicode="&#xe623;" 
d="M154 319l794 -455v911z" />
    <glyph glyph-name="uniE624" unicode="&#xe624;" 
d="M653 185l-282 230l-186 -227q-47 -58 -39.5 -133t65.5 -123t133 -40.5t123 66.5zM273 225q2 3 4.5 4.5t4.5 2.5t5 1t5.5 -0.5t5 -1.5t4.5 -3q6 -5 7 -13t-4 -15l-58 -70q-5 -6 -13 -7t-14.5 4t-7.5 13.5t4 14.5zM350 249q-4 -6 -10 -8t-13 -1t-12 5q-8 7 -9 17t5.5 18
t17 9t18.5 -5.5t9 -16.5t-6 -18z" />
    <glyph glyph-name="uniE625" unicode="&#xe625;" 
d="M813 668q58 -48 65.5 -123t-39.5 -133l-186 -227l-282 230l186 227q48 59 123 66.5t133 -40.5z" />
    <glyph glyph-name="uniE626" unicode="&#xe626;" 
d="M521 673q-45 0 -88.5 -12t-80.5 -34t-68 -53t-52.5 -67.5t-33.5 -80t-12 -88.5q0 -91 45 -168.5t122 -122t168 -44.5t168.5 44.5t122 122t44.5 168.5q0 54 -17 105t-48 92.5t-72 72.5t-92 48t-106 17zM665.5 548.5q-8.5 -8.5 -20 -8t-19.5 8.5q-6 6 -7.5 13t0.5 14.5
t7.5 12.5t12.5 7t14.5 0t12.5 -8q8 -8 8 -19.5t-8.5 -20zM785.5 425q-6.5 -7 -16 -6.5t-16.5 7.5l-71 73q-6 7 -6 16t6.5 16t16 6.5t16.5 -6.5l71 -74q6 -7 6 -16t-6.5 -16z" />
    <glyph glyph-name="uniE627" unicode="&#xe627;" 
d="M512 588q-135 0 -249 -34t-180 -92.5t-66 -127.5t66 -127.5t180 -92.5t249 -34t249 34t180 92.5t66 127.5t-66 127.5t-180 92.5t-249 34zM771.5 468q-6.5 -10 -17.5 -12.5t-21 3.5t-12.5 17.5t3.5 21.5t17.5 12.5t21.5 -4t12.5 -17.5t-4 -21zM917 377q-5 -8 -14 -10.5
t-17 2.5l-87 55q-8 5 -10 14t3 17t14.5 10t17.5 -3l86 -54q8 -5 10 -14t-3 -17z" />
    <glyph glyph-name="uniE628" unicode="&#xe628;" 
d="M681 587h-338q-49 0 -83.5 -34.5t-34.5 -83.5v-338q0 -49 34.5 -83.5t83.5 -34.5h338q32 0 59.5 15.5t43 43t15.5 59.5v338q0 49 -34.5 83.5t-83.5 34.5zM739 282q0 -9 -6.5 -16t-16 -7t-16.5 7t-7 16v102q0 10 7 16.5t16 6.5q6 0 11.5 -3t8.5 -8t3 -12v-102zM716 431
q-12 0 -20 8.5t-8 20t8 20t20 8.5t20 -8.5t8 -20t-8 -20t-20 -8.5z" />
    <glyph glyph-name="uniE629" unicode="&#xe629;" 
d="M833 527h-642q-49 0 -83.5 -34.5t-34.5 -83.5v-218q0 -32 15.5 -59t43 -43t59.5 -16h642q49 0 83.5 34.5t34.5 83.5v218q0 32 -15.5 59t-43 43t-59.5 16zM876 209q0 -10 -6.5 -16.5t-16.5 -6.5q-3 0 -6 0.5t-5.5 2t-4.5 4t-3.5 5t-2.5 5t-1 6.5v102q0 9 7 16t16 7
q6 0 11.5 -3.5t8.5 -8.5t3 -11v-102zM853 358q-6 0 -11 2t-9 6t-6 9t-2 11t2 11t6 9t9 6t11 2q5 0 9 -1.5t7.5 -4t6 -6t4 -7.5t1.5 -9q0 -12 -8 -20t-20 -8z" />
  </font>
</defs>
</svg>
